<?xml version="1.0" encoding="utf-8"?>
<!-- Generator: Adobe Illustrator 27.0.1, SVG Export Plug-In . SVG Version: 6.00 Build 0)  -->
<svg version="1.1" id="Layer_1" xmlns="http://www.w3.org/2000/svg" xmlns:xlink="http://www.w3.org/1999/xlink" x="0px" y="0px"
	 viewBox="0 0 496 512" style="enable-background:new 0 0 496 512;" xml:space="preserve">
<path d="M382.9,24.7H113.1c-53.2,0-96.4,43.2-96.4,96.4v269.8c0,53.2,43.2,96.4,96.4,96.4h269.8c53.2,0,96.4-43.2,96.4-96.4V121.1
	C479.3,67.9,436.1,24.7,382.9,24.7z M170.9,390.9h-57.8v-212h57.8V390.9z M142,154.5c-18.6,0-33.7-15.2-33.7-34s15.1-34,33.7-34
	s33.7,15.2,33.7,34S160.6,154.5,142,154.5z M402.2,390.9h-57.8v-108c0-64.9-77.1-60-77.1,0v108h-57.8v-212h57.8v34
	c26.9-49.8,134.9-53.5,134.9,47.7V390.9z"/>
</svg>
